<svg viewBox="0 0 400 400" version="1.1" xmlns:xlink="http://www.w3.org/1999/xlink" xmlns="http://www.w3.org/2000/svg" width="400" height="400">
<!-- White circular background -->
<circle cx="200" cy="200" r="200" fill="#ffffff"/>
<!-- Logo centered with larger scaling -->
<g transform="translate(200, 200)">
<g transform="scale(2) translate(-280, -280)">
<path fill="#1d1d1b" d="M2659.33 2326.48C2599.04 2341.44 2550.37 2370.48 2514.57 2412.84L2832.11 2864.42 2951.1 2713.4C2954.7 2708.55 2962.62 2698.12 2974.84 2682.13 2987.02 2666.16 3001.71 2647.24 3018.86 2625.44 3028 2613.82 3037.43 2601.97 3047.08 2589.95 2965.17 2368.87 2837.67 2282.22 2659.33 2326.48M2480.18 2865.21C2521.32 3030.96 2578.48 3144.52 2650.04 3202.72 2720.77 3260.28 2801.55 3278.35 2890.09 3256.38 2907.07 3252.16 2922.74 3246.89 2937.74 3241.08L2841.48 3112.47C2830.94 3098.32 2820.4 3086.04 2810.15 3075.96 2800.19 3066.23 2787.71 3058.25 2773.06 3052.24 2758.21 3046.15 2739.47 3041.61 2717.35 3038.75 2695.23 3035.9 2666.44 3034.44 2631.79 3034.43H2626.33L2627.29 3029.05C2628.11 3024.58 2628.36 3020.04 2628.03 3015.56L2627.7 3010.86 2632.42 3010.69C2661.91 3009.57 2688.41 3003.4 2711.19 2992.35 2734.32 2981.11 2757.66 2960.07 2780.65 2929.73L2814.27 2887.06 2497.24 2436.25C2438.58 2530.16 2432.82 2674.37 2480.18 2865.21M3026.12 3188.3 2864.06 2957.85C2852.8 2970.94 2841.63 2983.37 2830.82 2994.55 2819.3 3006.46 2809.18 3015.94 2800.05 3023.39L2958.59 3232.19C2984.52 3220.08 3007.33 3205.61 3026.12 3188.3M3085.34 2715.03C3083.08 2705.93 3080.59 2697.52 3078.23 2688.73L2939.43 2865.63C2930.41 2877.26 2919.79 2890.6 2907.56 2905.64 2899.47 2915.6 2890.91 2925.82 2882.44 2935.99L3045.24 3167.51C3124.35 3078.84 3137.87 2926.72 3085.34 2715.03M3301.82 2518.76C3278.02 2521.62 3255.77 2528.3 3235.66 2538.63 3215.33 2549.07 3196.26 2561.59 3178.98 2575.86 3167.87 2585.05 3157.46 2595.06 3147.45 2605.39 3156.93 2633.05 3165.82 2661.92 3173.57 2693.14 3245.4 2982.62 3178.68 3171.01 2975.97 3255.07L3095.15 3412.03C3113.74 3436.76 3133.01 3456.48 3152.39 3470.65 3171.43 3484.59 3201.18 3493.59 3240.8 3497.38L3244.92 3497.77V3521.01H2924.51V3497.64L2928.79 3497.36C2988.6 3493.57 3028.74 3480.41 3048.1 3458.24 3066.98 3436.64 3066.25 3412.87 3045.88 3385.56L2954.46 3263.43C2935.99 3270.12 2916.84 3276.3 2896.3 3281.4 2781.22 3309.96 2677.99 3294.64 2589.52 3235.83 2501.29 3177.2 2434.84 3059.88 2391.96 2887.1 2336.19 2662.35 2362.35 2497.29 2469.73 2396.3L2438.01 2352.62C2405.27 2307.96 2386.47 2274.71 2380.59 2251.02 2373.49 2222.42 2377.22 2185.33 2435.33 2170.92 2453.42 2166.42 2470.53 2164.19 2486.17 2164.28 2500.97 2164.36 2524.5 2165.54 2558.46 2167.9 2611.14 2173.56 2664.73 2175.17 2717.65 2172.72 2770.42 2170.33 2838.08 2158.98 2918.75 2138.97L2927.92 2136.69 2944.09 2201.85 2934.92 2204.13C2849.51 2225.32 2776.29 2236.24 2717.28 2236.58 2658.3 2236.94 2596.52 2232.53 2533.6 2223.49 2508.17 2219.5 2487.59 2217.08 2472.47 2216.27 2457.77 2215.48 2444.34 2216.56 2432.57 2219.48 2425.14 2221.33 2419.31 2224.76 2414.81 2229.9 2413.45 2231.45 2409.36 2236.23 2412.48 2248.82 2417.03 2267.16 2433.66 2297.22 2461.76 2338.07L2490.07 2377.99C2532.71 2343.46 2587.52 2317.74 2653.12 2301.46 2862.49 2249.5 3015.57 2321.69 3110.47 2515.19 3116.67 2508.63 3122.84 2502.28 3128.89 2496.43L3130.23 2495.16H3305.83V2518.27" transform="matrix(.1,0,0,-.1,0,566.929)"/>
</g>
</g>
</svg>