<svg viewBox="208.62987199999998 236.97632199999998 150.803114 94.110214" version="1.1" xmlns:xlink="http://www.w3.org/1999/xlink" xmlns="http://www.w3.org/2000/svg" style="max-height: 500px" width="150.803114" height="94.110214">
<defs>
<clipPath id="clip_0">
<path clip-rule="evenodd" d="M0 0H566.929V566.929H0Z" transform="matrix(1,0,0,-1,0,566.929)"/>
</clipPath>
</defs>
<g clip-path="url(#clip_0)">
<path fill="#1d1d1b" d="M2358.93 2848.45 2356.21 2848.62C2346.94 2849.2 2339.56 2849.71 2334.06 2850.15 2328.95 2850.55 2325.16 2851.4 2322.77 2852.66 2320.67 2853.77 2319.36 2855.23 2318.73 2857.13 2317.96 2859.45 2317.57 2862.97 2317.57 2867.57V3121.12C2317.57 3125.73 2317.96 3129.25 2318.74 3131.58 2319.35 3133.46 2320.67 3134.92 2322.77 3136.02 2325.17 3137.3 2328.97 3138.14 2334.06 3138.55 2339.56 3138.98 2346.94 3139.48 2356.21 3140.06L2358.93 3140.24V3150.27H2246.45V3140.24L2249.18 3140.06C2258.45 3139.48 2265.84 3138.98 2271.33 3138.55 2276.41 3138.14 2280.21 3137.3 2282.62 3136.02 2284.71 3134.92 2286.03 3133.46 2286.66 3131.57 2287.43 3129.25 2287.82 3125.73 2287.82 3121.12V2867.57C2287.82 2862.97 2287.43 2859.45 2286.66 2857.13 2286.03 2855.23 2284.71 2853.77 2282.62 2852.66 2280.22 2851.4 2276.42 2850.55 2271.33 2850.15 2265.83 2849.71 2258.45 2849.2 2249.18 2848.62L2246.45 2848.45V2838.43H2358.93" transform="matrix(.1,0,0,-.1,0,566.929)"/>
<path fill="#1d1d1b" d="M2350.42 3003.82 2351.09 3000.36C2351.32 2999.15 2351.4 2997.93 2351.31 2996.72L2351.08 2993.7 2354.1 2993.59C2363.41 2993.25 2371.77 2991.45 2378.93 2988.2 2386.18 2984.88 2393.51 2978.7 2400.76 2969.73L2455.57 2904.65C2456.74 2903.2 2459.28 2900.04 2463.22 2895.22 2467.14 2890.41 2471.87 2884.71 2477.39 2878.14 2482.91 2871.58 2488.74 2864.79 2494.84 2857.79 2500.97 2850.74 2507.06 2844.49 2512.94 2839.18L2513.77 2838.43H2613.69V2848.41L2611.01 2848.61C2599.75 2849.49 2590.58 2850.36 2583.5 2851.23 2576.77 2852.05 2571.74 2853.27 2568.55 2854.88 2565.88 2856.22 2564.39 2857.79 2564 2859.66 2563.67 2861.18 2563.7 2864.13 2565.65 2869.68L2592.4 2947.71 2595.71 2957.93 2650.87 3118.74 2707.25 2957.93 2711.05 2947.71 2738.24 2870.93C2739.84 2866.66 2740.58 2863.22 2740.46 2860.72 2740.4 2859.52 2740 2857.71 2737.3 2856.08 2734.69 2854.52 2730.61 2853.16 2725.15 2852.07 2719.45 2850.93 2711.62 2849.75 2701.88 2848.61L2699.32 2848.3V2838.43H2793.95C2806.98 2835.57 2820.3 2834.05 2833.69 2834.05 2848.44 2834.05 2861.95 2836.16 2873.83 2840.32 2885.76 2844.52 2895.99 2850.54 2904.23 2858.21 2912.48 2865.89 2918.94 2875.04 2923.43 2885.43 2927.93 2895.82 2930.2 2907.46 2930.2 2920.04 2930.2 2932.95 2927.83 2944.34 2923.15 2953.88 2918.54 2963.3 2912.48 2971.74 2905.16 2978.95 2897.93 2986.06 2889.45 2992.4 2879.95 2997.77 2870.64 3003.04 2861.09 3008.14 2851.32 3013.13 2841.62 3018.07 2832.13 3023 2822.86 3027.96 2813.84 3032.77 2805.75 3038.29 2798.81 3044.4 2792.01 3050.43 2786.35 3057.43 2782.02 3065.27 2777.78 3072.93 2775.65 3082.16 2775.65 3092.71 2775.65 3108.58 2780.8 3120.88 2791.41 3130.3 2797.24 3135.46 2802.28 3138.21 2810.04 3140.06H3105.01L2916.31 2846.57V2838.43H3079.36C3083 2842.8 3086.79 2847.06 3090.55 2851.34 3090.61 2851.43 3090.67 2851.52 3090.72 2851.61 3085.41 2849.82 3079.83 2848.63 3073.78 2848.63H2951.55L3139.83 3142.13V3150.27H2830.9C2827.68 3150.29 2824.65 3150.39 2821.78 3150.52 2819 3150.64 2816.35 3150.75 2813.78 3150.75 2811.54 3150.75 2808.91 3150.65 2806.08 3150.27H2802.79V3149.7C2801.25 3149.36 2799.68 3148.93 2798.08 3148.36 2786.62 3144.16 2776.91 3138.45 2769.24 3131.36 2761.54 3124.24 2755.67 3115.88 2751.77 3106.52 2747.86 3097.16 2745.89 3087.38 2745.89 3077.41 2745.89 3065.02 2748.26 3054.2 2752.95 3045.23 2757.59 3036.38 2763.67 3028.52 2771.01 3021.9 2778.25 3015.36 2786.72 3009.49 2796.19 3004.45 2805.45 2999.5 2815.09 2994.7 2824.85 2990.18 2834.53 2985.65 2844.01 2981.02 2853.25 2976.23 2862.32 2971.54 2870.4 2966.15 2877.29 2960.22 2884.1 2954.36 2889.73 2947.36 2894.05 2939.41 2898.29 2931.56 2900.44 2922.11 2900.44 2911.29 2900.44 2891.15 2894.84 2874.77 2883.78 2862.54 2872.81 2850.41 2856.68 2844.25 2835.85 2844.25 2828.03 2844.25 2819.5 2845.54 2810.52 2848.07 2801.65 2850.59 2793.06 2855.18 2785.01 2861.75 2779.05 2866.58 2773.49 2872.83 2768.39 2880.36L2749.88 2931C2749.75 2931.86 2749.61 2932.68 2749.48 2933.55L2749.13 2936.06H2748.04L2669 3152.46H2652.25L2555.8 2871.55C2554.41 2867.41 2552.95 2863.99 2551.46 2861.39 2550.12 2859.06 2548.46 2857.23 2546.44 2855.73 2540.89 2858.58 2535.6 2861.8 2530.81 2865.52 2525.26 2869.8 2520.12 2874.54 2515.5 2879.61 2510.74 2884.79 2506.51 2889.7 2502.73 2894.36L2453.99 2952.5C2451.07 2956.02 2447.65 2960.04 2443.71 2964.56 2439.78 2969.11 2435.71 2973.7 2431.49 2978.39 2427.22 2983.09 2423.04 2987.45 2418.94 2991.41 2415.8 2994.46 2412.87 2997.07 2410.18 2999.21L2504.09 3114.93C2509.96 3122.24 2516.05 3128.07 2522.19 3132.27 2528.1 3136.32 2537.45 3138.96 2549.97 3140.07L2552.61 3140.3V3150.27H2446.68V3140.22L2449.41 3140.06C2468.28 3138.95 2480.89 3135.14 2486.85 3128.75 2492.37 3122.84 2492.11 3116.55 2486.05 3108.96L2420.3 3026.77C2416.94 3022.55 2413.61 3018.91 2410.38 3015.95 2407.33 3013.15 2403.46 3010.84 2398.91 3009.09 2394.23 3007.29 2388.32 3005.95 2381.32 3005.11 2374.19 3004.25 2364.98 3003.82 2353.94 3003.82" transform="matrix(.1,0,0,-.1,0,566.929)"/>
<path fill="#1d1d1b" d="M2858.15 2626.5C2853.49 2635.95 2847.48 2644.27 2840.13 2651.47 2832.77 2658.67 2824.28 2664.96 2814.67 2670.37 2805.06 2675.76 2795.22 2681 2785.16 2686.11 2775.09 2691.2 2765.25 2696.3 2755.64 2701.41 2746.04 2706.5 2737.54 2712.28 2730.18 2718.72 2722.83 2725.17 2716.82 2732.6 2712.16 2740.99 2707.5 2749.39 2705.19 2759.29 2705.19 2770.69 2705.19 2787.78 2710.96 2801.42 2722.52 2811.62 2724.18 2813.08 2725.8 2814.31 2727.42 2815.44 2729.95 2816.08 2732.75 2816.69 2735.8 2817.26L2738.21 2817.71V2827.41H2643.47V2817.47L2646.15 2817.22C2658.35 2816.07 2667.91 2814.64 2674.56 2812.93 2680.76 2811.33 2685.13 2809.2 2687.54 2806.58 2689.79 2804.13 2690.7 2801.07 2690.34 2797.23 2690.13 2794.93 2689.67 2792.31 2689.02 2789.42 2688.04 2787.57 2687.08 2785.69 2686.26 2783.73 2683.27 2776.61 2681.44 2769.32 2680.74 2761.86L2614.55 2550.86 2544.91 2790.41C2543.54 2794.71 2542.9 2798.41 2543.04 2801.42 2543.16 2804.04 2544.18 2806.27 2546.17 2808.23 2548.29 2810.31 2551.95 2812.04 2557.05 2813.37 2562.47 2814.78 2570.25 2816.07 2580.17 2817.23L2582.79 2817.53V2827.41H2470.29V2817.44L2473 2817.22C2479.8 2816.66 2485.54 2815.6 2490.05 2814.09 2494.4 2812.61 2497.94 2810.68 2500.58 2808.34 2503.23 2805.99 2505.31 2803.28 2506.76 2800.29 2508.33 2797.05 2509.69 2793.58 2510.82 2790.02L2522.08 2752.44 2451.13 2550.41 2371.73 2790.41C2370.34 2794.74 2369.64 2798.48 2369.64 2801.55 2369.64 2804.08 2370.57 2806.17 2372.48 2807.94 2374.64 2809.95 2378.41 2811.71 2383.68 2813.17 2389.32 2814.72 2397.15 2816.08 2406.98 2817.23L2409.6 2817.53V2827.41H2297.1V2817.44L2299.82 2817.22C2306.61 2816.66 2312.32 2815.54 2316.79 2813.89 2321.14 2812.29 2324.7 2810.28 2327.39 2807.9 2330.04 2805.55 2332.14 2802.89 2333.6 2800.03 2335.15 2796.96 2336.51 2793.58 2337.66 2789.92L2431.59 2513.38H2448.72L2527.23 2736.36 2595.84 2513.38H2613.09L2682.97 2734.89C2684.09 2730.74 2685.49 2726.8 2687.38 2723.22 2692.04 2714.37 2698.04 2706.65 2705.4 2700.05 2712.76 2693.45 2721.25 2687.61 2730.86 2682.51 2740.47 2677.41 2750.31 2672.53 2760.38 2667.89 2770.44 2663.24 2780.27 2658.44 2789.88 2653.49 2799.5 2648.54 2807.99 2642.92 2815.34 2636.62 2822.7 2630.33 2828.71 2622.9 2833.36 2614.36 2838.03 2605.81 2840.35 2595.69 2840.35 2583.99 2840.35 2562.39 2834.33 2545 2822.33 2531.8 2810.31 2518.6 2793.04 2512.01 2770.51 2512.01 2762.1 2512.01 2753.09 2513.36 2743.47 2516.06 2733.88 2518.76 2724.7 2523.63 2715.99 2530.68 2707.29 2537.72 2699.47 2547.32 2692.57 2559.47 2685.65 2571.62 2680.85 2587.29 2678.15 2606.48H2673.64L2678.15 2530C2690.76 2523.1 2704.88 2517.63 2720.5 2513.58 2736.13 2509.54 2752.04 2507.51 2768.26 2507.51 2783.28 2507.51 2796.8 2509.61 2808.81 2513.81 2820.83 2518 2830.96 2523.93 2839.22 2531.58 2847.48 2539.23 2853.88 2548.22 2858.38 2558.57 2862.88 2568.92 2865.14 2580.39 2865.14 2592.99 2865.14 2605.88 2862.81 2617.06 2858.15 2626.5" transform="matrix(.1,0,0,-.1,0,566.929)"/>
<path fill="#1d1d1b" d="M2947.86 2522.17C2942.73 2522.58 2938.94 2523.43 2936.57 2524.69 2934.47 2525.79 2933.16 2527.25 2932.53 2529.16 2931.76 2531.48 2931.37 2534.99 2931.37 2539.59V2793.16C2931.37 2797.76 2931.76 2801.27 2932.54 2803.6 2933.15 2805.48 2934.47 2806.94 2936.57 2808.05 2938.96 2809.32 2942.75 2810.17 2947.86 2810.57 2953.36 2811.01 2960.75 2811.5 2970.01 2812.1L2972.73 2812.28V2822.3H2860.26V2812.28L2862.99 2812.1C2872.25 2811.5 2879.64 2811.01 2885.13 2810.57 2890.22 2810.17 2894.02 2809.32 2896.42 2808.06 2898.51 2806.95 2899.83 2805.48 2900.46 2803.59 2901.23 2801.27 2901.62 2797.76 2901.62 2793.16V2539.59C2901.62 2534.99 2901.23 2531.48 2900.46 2529.16 2899.82 2527.25 2898.51 2525.79 2896.43 2524.69 2894.04 2523.43 2890.24 2522.58 2885.13 2522.17 2879.64 2521.74 2872.25 2521.24 2862.99 2520.65L2860.26 2520.48V2510.45H2972.73V2520.48L2970.01 2520.65C2960.75 2521.24 2953.36 2521.74 2947.86 2522.17" transform="matrix(.1,0,0,-.1,0,566.929)"/>
<path fill="#1d1d1b" d="M3161.22 2930.48C3154.75 2949.49 3151.47 2970.98 3151.47 2994.35 3151.47 3017.7 3154.75 3039.2 3161.22 3058.27 3167.65 3077.23 3176.49 3093.7 3187.48 3107.21 3198.39 3120.63 3211.11 3131.14 3225.3 3138.45 3239.47 3145.68 3254.41 3149.33 3269.68 3149.33 3284.95 3149.33 3299.89 3145.68 3314.04 3138.47 3328.22 3131.16 3340.96 3120.64 3351.88 3107.21 3359.05 3098.4 3365.23 3088.13 3370.55 3076.79L3181.32 2889.89C3173.15 2901.74 3166.36 2915.29 3161.22 2930.48M3378.14 2930.48C3371.65 2911.45 3362.81 2894.95 3351.88 2881.48 3340.93 2868.04 3328.21 2857.52 3314.05 2850.29 3299.92 2843.04 3285 2839.35 3269.68 2839.35 3254.36 2839.35 3239.44 2843.04 3225.31 2850.29 3211.79 2857.2 3199.58 2867.11 3189 2879.68L3375.85 3064.21C3376.61 3062.22 3377.44 3060.33 3378.14 3058.29 3384.6 3039.2 3387.87 3017.68 3387.87 2994.35 3387.87 2971 3384.6 2949.51 3378.14 2930.48M3395.23 2523.38C3391.23 2524.58 3388.04 2526.1 3385.73 2527.92 3383.42 2529.71 3381.53 2531.85 3380.14 2534.27 3378.66 2536.86 3377.36 2539.97 3376.24 2543.66L3273.65 2824.48H3256.91L3160.45 2543.58C3159.05 2539.41 3157.6 2535.98 3156.12 2533.4 3155.61 2532.51 3154.98 2531.74 3154.36 2530.97 3150.97 2533 3147.68 2535.16 3144.61 2537.54 3139.1 2541.79 3133.95 2546.54 3129.31 2551.61 3124.55 2556.82 3120.31 2561.73 3116.53 2566.39L3067.79 2624.54C3064.87 2628.04 3061.45 2632.05 3057.51 2636.59 3053.58 2641.13 3049.5 2645.72 3045.29 2650.41 3041.02 2655.13 3036.85 2659.47 3032.73 2663.44 3031.81 2664.34 3030.16 2665.9 3028.22 2667.71 3020.3 2675.15 3016.81 2677.91 3005.99 2676.95 2999.69 2676.39 2990.82 2676.21 2982.86 2676.1L3171.9 2862.79C3182.94 2853.18 3195.3 2845.29 3208.85 2839.29 3227.41 2831.07 3247.88 2826.91 3269.68 2826.91 3291.11 2826.91 3311.49 2831.07 3330.28 2839.29 3348.97 2847.54 3365.39 2859.22 3379.06 2874.04 3392.8 2888.94 3403.63 2906.8 3411.26 2927.08 3418.95 2947.4 3422.84 2970.04 3422.84 2994.35 3422.84 3018.71 3418.95 3041.34 3411.28 3061.61 3403.6 3081.98 3392.76 3099.84 3379.06 3114.67 3365.38 3129.47 3348.97 3141.17 3330.27 3149.42 3311.63 3157.63 3291.24 3161.79 3269.68 3161.79 3247.74 3161.79 3227.27 3157.61 3208.85 3149.41 3190.33 3141.19 3174.01 3129.5 3160.3 3114.67 3146.64 3099.9 3135.79 3082.05 3128.03 3061.61 3120.4 3041.29 3116.52 3018.66 3116.52 2994.35 3116.52 2970.08 3120.4 2947.46 3128.04 2927.08 3135.76 2906.74 3146.6 2888.89 3160.3 2874.04 3161.09 2873.18 3161.92 2872.38 3162.73 2871.54L2966.69 2677.93V2665.65L2967.92 2665.61C2977.21 2665.29 2985.57 2663.47 2992.73 2660.22 2999.96 2656.93 3007.29 2650.73 3014.56 2641.76L3069.37 2576.67C3070.54 2575.21 3073.08 2572.07 3077.02 2567.25 3080.94 2562.43 3085.66 2556.74 3091.19 2550.16 3096.71 2543.6 3102.54 2536.8 3108.64 2529.8 3114.38 2523.22 3120.02 2517.44 3125.48 2512.41V2510.44H3218.36V2520.44L3215.67 2520.64C3204.41 2521.51 3195.24 2522.39 3188.16 2523.25 3181.43 2524.08 3176.4 2525.3 3173.22 2526.9 3170.54 2528.24 3169.06 2529.8 3168.66 2531.68 3168.35 2533.18 3168.37 2536.15 3170.31 2541.71L3197.07 2619.74 3200.38 2629.95 3255.54 2790.76 3311.92 2629.95 3315.71 2619.74 3342.91 2542.94C3344.5 2538.68 3345.24 2535.26 3345.12 2532.74 3345.06 2531.54 3344.67 2529.74 3341.95 2528.11 3339.33 2526.52 3335.26 2525.17 3329.82 2524.1 3324.12 2522.95 3316.29 2521.79 3306.54 2520.63L3303.98 2520.33V2510.44H3414.27V2520.42L3411.61 2520.64C3404.87 2521.2 3399.36 2522.13 3395.23 2523.38" transform="matrix(.1,0,0,-.1,0,566.929)"/>
<path fill="#1d1d1b" d="M2358.93 2848.45 2356.21 2848.62C2346.94 2849.2 2339.56 2849.71 2334.06 2850.15 2328.95 2850.55 2325.16 2851.4 2322.77 2852.66 2320.67 2853.77 2319.36 2855.23 2318.73 2857.13 2317.96 2859.45 2317.57 2862.97 2317.57 2867.57V3121.12C2317.57 3125.73 2317.96 3129.25 2318.74 3131.58 2319.35 3133.46 2320.67 3134.92 2322.77 3136.02 2325.17 3137.3 2328.97 3138.14 2334.06 3138.55 2339.56 3138.98 2346.94 3139.48 2356.21 3140.06L2358.93 3140.24V3150.27H2246.45V3140.24L2249.18 3140.06C2258.45 3139.48 2265.84 3138.98 2271.33 3138.55 2276.41 3138.14 2280.21 3137.3 2282.62 3136.02 2284.71 3134.92 2286.03 3133.46 2286.66 3131.57 2287.43 3129.25 2287.82 3125.73 2287.82 3121.12V2867.57C2287.82 2862.97 2287.43 2859.45 2286.66 2857.13 2286.03 2855.23 2284.71 2853.77 2282.62 2852.66 2280.22 2851.4 2276.42 2850.55 2271.33 2850.15 2265.83 2849.71 2258.45 2849.2 2249.18 2848.62L2246.45 2848.45V2838.43H2358.93" transform="matrix(.1,0,0,-.1,0,566.929)"/>
<path fill="#1d1d1b" d="M2350.42 3003.82 2351.09 3000.36C2351.32 2999.15 2351.4 2997.93 2351.31 2996.72L2351.08 2993.7 2354.1 2993.59C2363.41 2993.25 2371.77 2991.45 2378.93 2988.2 2386.18 2984.88 2393.51 2978.7 2400.76 2969.73L2455.57 2904.65C2456.74 2903.2 2459.28 2900.04 2463.22 2895.22 2467.14 2890.41 2471.87 2884.71 2477.39 2878.14 2482.91 2871.58 2488.74 2864.79 2494.84 2857.79 2500.97 2850.74 2507.06 2844.49 2512.94 2839.18L2513.77 2838.43H2613.69V2848.41L2611.01 2848.61C2599.75 2849.49 2590.58 2850.36 2583.5 2851.23 2576.77 2852.05 2571.74 2853.27 2568.55 2854.88 2565.88 2856.22 2564.39 2857.79 2564 2859.66 2563.67 2861.18 2563.7 2864.13 2565.65 2869.68L2592.4 2947.71 2595.71 2957.93 2650.87 3118.74 2707.25 2957.93 2711.05 2947.71 2738.24 2870.93C2739.84 2866.66 2740.58 2863.22 2740.46 2860.72 2740.4 2859.52 2740 2857.71 2737.3 2856.08 2734.69 2854.52 2730.61 2853.16 2725.15 2852.07 2719.45 2850.93 2711.62 2849.75 2701.88 2848.61L2699.32 2848.3V2838.43H2793.95C2806.98 2835.57 2820.3 2834.05 2833.69 2834.05 2848.44 2834.05 2861.95 2836.16 2873.83 2840.32 2885.76 2844.52 2895.99 2850.54 2904.23 2858.21 2912.48 2865.89 2918.94 2875.04 2923.43 2885.43 2927.93 2895.82 2930.2 2907.46 2930.2 2920.04 2930.2 2932.95 2927.83 2944.34 2923.15 2953.88 2918.54 2963.3 2912.48 2971.74 2905.16 2978.95 2897.93 2986.06 2889.45 2992.4 2879.95 2997.77 2870.64 3003.04 2861.09 3008.14 2851.32 3013.13 2841.62 3018.07 2832.13 3023 2822.86 3027.96 2813.84 3032.77 2805.75 3038.29 2798.81 3044.4 2792.01 3050.43 2786.35 3057.43 2782.02 3065.27 2777.78 3072.93 2775.65 3082.16 2775.65 3092.71 2775.65 3108.58 2780.8 3120.88 2791.41 3130.3 2797.24 3135.46 2802.28 3138.21 2810.04 3140.06H3105.01L2916.31 2846.57V2838.43H3079.36C3083 2842.8 3086.79 2847.06 3090.55 2851.34 3090.61 2851.43 3090.67 2851.52 3090.72 2851.61 3085.41 2849.82 3079.83 2848.63 3073.78 2848.63H2951.55L3139.83 3142.13V3150.27H2830.9C2827.68 3150.29 2824.65 3150.39 2821.78 3150.52 2819 3150.64 2816.35 3150.75 2813.78 3150.75 2811.54 3150.75 2808.91 3150.65 2806.08 3150.27H2802.79V3149.7C2801.25 3149.36 2799.68 3148.93 2798.08 3148.36 2786.62 3144.16 2776.91 3138.45 2769.24 3131.36 2761.54 3124.24 2755.67 3115.88 2751.77 3106.52 2747.86 3097.16 2745.89 3087.38 2745.89 3077.41 2745.89 3065.02 2748.26 3054.2 2752.95 3045.23 2757.59 3036.38 2763.67 3028.52 2771.01 3021.9 2778.25 3015.36 2786.72 3009.49 2796.19 3004.45 2805.45 2999.5 2815.09 2994.7 2824.85 2990.18 2834.53 2985.65 2844.01 2981.02 2853.25 2976.23 2862.32 2971.54 2870.4 2966.15 2877.29 2960.22 2884.1 2954.36 2889.73 2947.36 2894.05 2939.41 2898.29 2931.56 2900.44 2922.11 2900.44 2911.29 2900.44 2891.15 2894.84 2874.77 2883.78 2862.54 2872.81 2850.41 2856.68 2844.25 2835.85 2844.25 2828.03 2844.25 2819.5 2845.54 2810.52 2848.07 2801.65 2850.59 2793.06 2855.18 2785.01 2861.75 2779.05 2866.58 2773.49 2872.83 2768.39 2880.36L2749.88 2931C2749.75 2931.86 2749.61 2932.68 2749.48 2933.55L2749.13 2936.06H2748.04L2669 3152.46H2652.25L2555.8 2871.55C2554.41 2867.41 2552.95 2863.99 2551.46 2861.39 2550.12 2859.06 2548.46 2857.23 2546.44 2855.73 2540.89 2858.58 2535.6 2861.8 2530.81 2865.52 2525.26 2869.8 2520.12 2874.54 2515.5 2879.61 2510.74 2884.79 2506.51 2889.7 2502.73 2894.36L2453.99 2952.5C2451.07 2956.02 2447.65 2960.04 2443.71 2964.56 2439.78 2969.11 2435.71 2973.7 2431.49 2978.39 2427.22 2983.09 2423.04 2987.45 2418.94 2991.41 2415.8 2994.46 2412.87 2997.07 2410.18 2999.21L2504.09 3114.93C2509.96 3122.24 2516.05 3128.07 2522.19 3132.27 2528.1 3136.32 2537.45 3138.96 2549.97 3140.07L2552.61 3140.3V3150.27H2446.68V3140.22L2449.41 3140.06C2468.28 3138.95 2480.89 3135.14 2486.85 3128.75 2492.37 3122.84 2492.11 3116.55 2486.05 3108.96L2420.3 3026.77C2416.94 3022.55 2413.61 3018.91 2410.38 3015.95 2407.33 3013.15 2403.46 3010.84 2398.91 3009.09 2394.23 3007.29 2388.32 3005.95 2381.32 3005.11 2374.19 3004.25 2364.98 3003.82 2353.94 3003.82" transform="matrix(.1,0,0,-.1,0,566.929)"/>
<path fill="#1d1d1b" d="M2858.15 2626.5C2853.49 2635.95 2847.48 2644.27 2840.13 2651.47 2832.77 2658.67 2824.28 2664.96 2814.67 2670.37 2805.06 2675.76 2795.22 2681 2785.16 2686.11 2775.09 2691.2 2765.25 2696.3 2755.64 2701.41 2746.04 2706.5 2737.54 2712.28 2730.18 2718.72 2722.83 2725.17 2716.82 2732.6 2712.16 2740.99 2707.5 2749.39 2705.19 2759.29 2705.19 2770.69 2705.19 2787.78 2710.96 2801.42 2722.52 2811.62 2724.18 2813.08 2725.8 2814.31 2727.42 2815.44 2729.95 2816.08 2732.75 2816.69 2735.8 2817.26L2738.21 2817.71V2827.41H2643.47V2817.47L2646.15 2817.22C2658.35 2816.07 2667.91 2814.64 2674.56 2812.93 2680.76 2811.33 2685.13 2809.2 2687.54 2806.58 2689.79 2804.13 2690.7 2801.07 2690.34 2797.23 2690.13 2794.93 2689.67 2792.31 2689.02 2789.42 2688.04 2787.57 2687.08 2785.69 2686.26 2783.73 2683.27 2776.61 2681.44 2769.32 2680.74 2761.86L2614.55 2550.86 2544.91 2790.41C2543.54 2794.71 2542.9 2798.41 2543.04 2801.42 2543.16 2804.04 2544.18 2806.27 2546.17 2808.23 2548.29 2810.31 2551.95 2812.04 2557.05 2813.37 2562.47 2814.78 2570.25 2816.07 2580.17 2817.23L2582.79 2817.53V2827.41H2470.29V2817.44L2473 2817.22C2479.8 2816.66 2485.54 2815.6 2490.05 2814.09 2494.4 2812.61 2497.94 2810.68 2500.58 2808.34 2503.23 2805.99 2505.31 2803.28 2506.76 2800.29 2508.33 2797.05 2509.69 2793.58 2510.82 2790.02L2522.08 2752.44 2451.13 2550.41 2371.73 2790.41C2370.34 2794.74 2369.64 2798.48 2369.64 2801.55 2369.64 2804.08 2370.57 2806.17 2372.48 2807.94 2374.64 2809.95 2378.41 2811.71 2383.68 2813.17 2389.32 2814.72 2397.15 2816.08 2406.98 2817.23L2409.6 2817.53V2827.41H2297.1V2817.44L2299.82 2817.22C2306.61 2816.66 2312.32 2815.54 2316.79 2813.89 2321.14 2812.29 2324.7 2810.28 2327.39 2807.9 2330.04 2805.55 2332.14 2802.89 2333.6 2800.03 2335.15 2796.96 2336.51 2793.58 2337.66 2789.92L2431.59 2513.38H2448.72L2527.23 2736.36 2595.84 2513.38H2613.09L2682.97 2734.89C2684.09 2730.74 2685.49 2726.8 2687.38 2723.22 2692.04 2714.37 2698.04 2706.65 2705.4 2700.05 2712.76 2693.45 2721.25 2687.61 2730.86 2682.51 2740.47 2677.41 2750.31 2672.53 2760.38 2667.89 2770.44 2663.24 2780.27 2658.44 2789.88 2653.49 2799.5 2648.54 2807.99 2642.92 2815.34 2636.62 2822.7 2630.33 2828.71 2622.9 2833.36 2614.36 2838.03 2605.81 2840.35 2595.69 2840.35 2583.99 2840.35 2562.39 2834.33 2545 2822.33 2531.8 2810.31 2518.6 2793.04 2512.01 2770.51 2512.01 2762.1 2512.01 2753.09 2513.36 2743.47 2516.06 2733.88 2518.76 2724.7 2523.63 2715.99 2530.68 2707.29 2537.72 2699.47 2547.32 2692.57 2559.47 2685.65 2571.62 2680.85 2587.29 2678.15 2606.48H2673.64L2678.15 2530C2690.76 2523.1 2704.88 2517.63 2720.5 2513.58 2736.13 2509.54 2752.04 2507.51 2768.26 2507.51 2783.28 2507.51 2796.8 2509.61 2808.81 2513.81 2820.83 2518 2830.96 2523.93 2839.22 2531.58 2847.48 2539.23 2853.88 2548.22 2858.38 2558.57 2862.88 2568.92 2865.14 2580.39 2865.14 2592.99 2865.14 2605.88 2862.81 2617.06 2858.15 2626.5" transform="matrix(.1,0,0,-.1,0,566.929)"/>
<path fill="#1d1d1b" d="M2947.86 2522.17C2942.73 2522.58 2938.94 2523.43 2936.57 2524.69 2934.47 2525.79 2933.16 2527.25 2932.53 2529.16 2931.76 2531.48 2931.37 2534.99 2931.37 2539.59V2793.16C2931.37 2797.76 2931.76 2801.27 2932.54 2803.6 2933.15 2805.48 2934.47 2806.94 2936.57 2808.05 2938.96 2809.32 2942.75 2810.17 2947.86 2810.57 2953.36 2811.01 2960.75 2811.5 2970.01 2812.1L2972.73 2812.28V2822.3H2860.26V2812.28L2862.99 2812.1C2872.25 2811.5 2879.64 2811.01 2885.13 2810.57 2890.22 2810.17 2894.02 2809.32 2896.42 2808.06 2898.51 2806.95 2899.83 2805.48 2900.46 2803.59 2901.23 2801.27 2901.62 2797.76 2901.62 2793.16V2539.59C2901.62 2534.99 2901.23 2531.48 2900.46 2529.16 2899.82 2527.25 2898.51 2525.79 2896.43 2524.69 2894.04 2523.43 2890.24 2522.58 2885.13 2522.17 2879.64 2521.74 2872.25 2521.24 2862.99 2520.65L2860.26 2520.48V2510.45H2972.73V2520.48L2970.01 2520.65C2960.75 2521.24 2953.36 2521.74 2947.86 2522.17" transform="matrix(.1,0,0,-.1,0,566.929)"/>
<path fill="#1d1d1b" d="M3161.22 2930.48C3154.75 2949.49 3151.47 2970.98 3151.47 2994.35 3151.47 3017.7 3154.75 3039.2 3161.22 3058.27 3167.65 3077.23 3176.49 3093.7 3187.48 3107.21 3198.39 3120.63 3211.11 3131.14 3225.3 3138.45 3239.47 3145.68 3254.41 3149.33 3269.68 3149.33 3284.95 3149.33 3299.89 3145.68 3314.04 3138.47 3328.22 3131.16 3340.96 3120.64 3351.88 3107.21 3359.05 3098.4 3365.23 3088.13 3370.55 3076.79L3181.32 2889.89C3173.15 2901.74 3166.36 2915.29 3161.22 2930.48M3378.14 2930.48C3371.65 2911.45 3362.81 2894.95 3351.88 2881.48 3340.93 2868.04 3328.21 2857.52 3314.05 2850.29 3299.92 2843.04 3285 2839.35 3269.68 2839.35 3254.36 2839.35 3239.44 2843.04 3225.31 2850.29 3211.79 2857.2 3199.58 2867.11 3189 2879.68L3375.85 3064.21C3376.61 3062.22 3377.44 3060.33 3378.14 3058.29 3384.6 3039.2 3387.87 3017.68 3387.87 2994.35 3387.87 2971 3384.6 2949.51 3378.14 2930.48M3395.23 2523.38C3391.23 2524.58 3388.04 2526.1 3385.73 2527.92 3383.42 2529.71 3381.53 2531.85 3380.14 2534.27 3378.66 2536.86 3377.36 2539.97 3376.24 2543.66L3273.65 2824.48H3256.91L3160.45 2543.58C3159.05 2539.41 3157.6 2535.98 3156.12 2533.4 3155.61 2532.51 3154.98 2531.74 3154.36 2530.97 3150.97 2533 3147.68 2535.16 3144.61 2537.54 3139.1 2541.79 3133.95 2546.54 3129.31 2551.61 3124.55 2556.82 3120.31 2561.73 3116.53 2566.39L3067.79 2624.54C3064.87 2628.04 3061.45 2632.05 3057.51 2636.59 3053.58 2641.13 3049.5 2645.72 3045.29 2650.41 3041.02 2655.13 3036.85 2659.47 3032.73 2663.44 3031.81 2664.34 3030.16 2665.9 3028.22 2667.71 3020.3 2675.15 3016.81 2677.91 3005.99 2676.95 2999.69 2676.39 2990.82 2676.21 2982.86 2676.1L3171.9 2862.79C3182.94 2853.18 3195.3 2845.29 3208.85 2839.29 3227.41 2831.07 3247.88 2826.91 3269.68 2826.91 3291.11 2826.91 3311.49 2831.07 3330.28 2839.29 3348.97 2847.54 3365.39 2859.22 3379.06 2874.04 3392.8 2888.94 3403.63 2906.8 3411.26 2927.08 3418.95 2947.4 3422.84 2970.04 3422.84 2994.35 3422.84 3018.71 3418.95 3041.34 3411.28 3061.61 3403.6 3081.98 3392.76 3099.84 3379.06 3114.67 3365.38 3129.47 3348.97 3141.17 3330.27 3149.42 3311.63 3157.63 3291.24 3161.79 3269.68 3161.79 3247.74 3161.79 3227.27 3157.61 3208.85 3149.41 3190.33 3141.19 3174.01 3129.5 3160.3 3114.67 3146.64 3099.9 3135.79 3082.05 3128.03 3061.61 3120.4 3041.29 3116.52 3018.66 3116.52 2994.35 3116.52 2970.08 3120.4 2947.46 3128.04 2927.08 3135.76 2906.74 3146.6 2888.89 3160.3 2874.04 3161.09 2873.18 3161.92 2872.38 3162.73 2871.54L2966.69 2677.93V2665.65L2967.92 2665.61C2977.21 2665.29 2985.57 2663.47 2992.73 2660.22 2999.96 2656.93 3007.29 2650.73 3014.56 2641.76L3069.37 2576.67C3070.54 2575.21 3073.08 2572.07 3077.02 2567.25 3080.94 2562.43 3085.66 2556.74 3091.19 2550.16 3096.71 2543.6 3102.54 2536.8 3108.64 2529.8 3114.38 2523.22 3120.02 2517.44 3125.48 2512.41V2510.44H3218.36V2520.44L3215.67 2520.64C3204.41 2521.51 3195.24 2522.39 3188.16 2523.25 3181.43 2524.08 3176.4 2525.3 3173.22 2526.9 3170.54 2528.24 3169.06 2529.8 3168.66 2531.68 3168.35 2533.18 3168.37 2536.15 3170.31 2541.71L3197.07 2619.74 3200.38 2629.95 3255.54 2790.76 3311.92 2629.95 3315.71 2619.74 3342.91 2542.94C3344.5 2538.68 3345.24 2535.26 3345.12 2532.74 3345.06 2531.54 3344.67 2529.74 3341.95 2528.11 3339.33 2526.52 3335.26 2525.17 3329.82 2524.1 3324.12 2522.95 3316.29 2521.79 3306.54 2520.63L3303.98 2520.33V2510.44H3414.27V2520.42L3411.61 2520.64C3404.87 2521.2 3399.36 2522.13 3395.23 2523.38" transform="matrix(.1,0,0,-.1,0,566.929)"/>
</g>
</svg>