<svg style="max-height: 500px" xmlns="http://www.w3.org/2000/svg" xmlns:xlink="http://www.w3.org/1999/xlink" version="1.1" viewBox="189.80721297282605 256.79615984 187.73668966847825 106.392163856" width="187.73668966847825" height="106.392163856">
    <defs>
        <clipPath id="clip_0">
            <path transform="matrix(1,0,0,-1,0,566.929)" d="M0 0H566.929V566.929H0Z" clip-rule="evenodd"/>
        </clipPath>
    </defs>
    <g clip-path="url(#clip_0)">
        <path transform="matrix(.1,0,0,-.1,0,566.929)" d="M1992.89 2845.48C1989.21 2845.77 1986.47 2846.38 1984.74 2847.29 1983.23 2848.07 1982.29 2849.13 1981.83 2850.48 1981.27 2852.14 1980.99 2854.66 1980.99 2857.96V3039.54C1980.99 3042.84 1981.27 3045.36 1981.84 3047.02 1982.28 3048.36 1983.23 3049.41 1984.74 3050.2 1986.48 3051.11 1989.22 3051.73 1992.89 3052 1996.86 3052.32 2002.18 3052.68 2008.87 3053.09L2010.83 3053.21V3060.41H1929.68V3053.21L1931.65 3053.09C1938.34 3052.68 1943.67 3052.32 1947.64 3052 1951.3 3051.73 1954.04 3051.11 1955.78 3050.2 1957.29 3049.41 1958.24 3048.36 1958.69 3047.02 1959.25 3045.36 1959.53 3042.84 1959.53 3039.54V2857.96C1959.53 2854.66 1959.25 2852.14 1958.69 2850.48 1958.24 2849.13 1957.29 2848.07 1955.78 2847.29 1954.04 2846.38 1951.3 2845.77 1947.64 2845.48 1943.66 2845.16 1938.34 2844.8 1931.65 2844.39L1929.68 2844.27V2837.09H2010.83V2844.27L2008.87 2844.39C2002.18 2844.8 1996.86 2845.16 1992.89 2845.48" fill="#1d1d1b"/>
        <path transform="matrix(.1,0,0,-.1,0,566.929)" d="M2181.66 2922.66 2221.46 3037.83 2262.14 2922.66ZM2322.24 2846.34C2319.38 2847.2 2317.07 2848.28 2315.39 2849.59 2313.71 2850.9 2312.35 2852.43 2311.36 2854.16 2310.3 2855.97 2309.36 2858.2 2308.54 2860.87L2234.54 3061.97H2222.46L2152.87 2860.81C2151.86 2857.85 2150.82 2855.4 2149.74 2853.53 2148.77 2851.87 2147.57 2850.56 2146.12 2849.49 2142.11 2851.52 2138.29 2853.83 2134.84 2856.48 2130.84 2859.56 2127.12 2862.95 2123.79 2866.58 2120.36 2870.29 2117.31 2873.81 2114.58 2877.15L2079.41 2918.78C2077.31 2921.29 2074.84 2924.17 2072 2927.42 2069.16 2930.67 2066.23 2933.96 2063.18 2937.32 2060.1 2940.69 2057.08 2943.8 2054.13 2946.65 2051.86 2948.83 2049.75 2950.7 2047.81 2952.23L2115.56 3035.09C2119.8 3040.33 2124.19 3044.51 2128.62 3047.51 2132.89 3050.42 2139.63 3052.3 2148.66 3053.1L2150.57 3053.27V3060.4H2074.14V3053.21L2076.11 3053.1C2089.73 3052.3 2098.82 3049.57 2103.13 3045 2107.11 3040.76 2106.92 3036.26 2102.55 3030.82L2055.11 2971.97C2052.69 2968.94 2050.28 2966.34 2047.95 2964.21 2045.75 2962.21 2042.96 2960.56 2039.68 2959.3 2036.3 2958.02 2032.03 2957.06 2026.98 2956.45 2021.84 2955.84 2015.2 2955.53 2007.24 2955.53H2004.69L2005.18 2953.05C2005.34 2952.18 2005.4 2951.31 2005.34 2950.45L2005.17 2948.28 2007.35 2948.2C2014.06 2947.97 2020.09 2946.67 2025.27 2944.34 2030.49 2941.97 2035.78 2937.53 2041.01 2931.12L2080.55 2884.52C2081.4 2883.47 2083.23 2881.21 2086.07 2877.77 2088.9 2874.32 2092.31 2870.24 2096.3 2865.53 2100.28 2860.83 2104.48 2855.97 2108.89 2850.95 2113.31 2845.91 2117.7 2841.43 2121.94 2837.62L2122.54 2837.09H2127.63 2164.71 2194.63V2844.24L2192.7 2844.38C2184.58 2845.02 2177.96 2845.63 2172.85 2846.26 2168 2846.84 2164.37 2847.72 2162.07 2848.88 2160.14 2849.83 2159.07 2850.95 2158.78 2852.29 2158.55 2853.38 2158.57 2855.5 2159.98 2859.47L2179.28 2915.35H2264.88L2284.49 2860.36C2285.65 2857.31 2286.18 2854.85 2286.1 2853.06 2286.05 2852.19 2285.76 2850.9 2283.81 2849.73 2281.94 2848.61 2278.99 2847.64 2275.05 2846.86 2270.93 2846.04 2265.29 2845.2 2258.26 2844.38L2256.42 2844.16V2837.09H2335.99V2844.22L2334.07 2844.38C2329.24 2844.79 2325.25 2845.45 2322.24 2846.34" fill="#1d1d1b"/>
        <path transform="matrix(.1,0,0,-.1,0,566.929)" d="M2630.48 2889.54C2629.66 2883.49 2628.02 2877.63 2625.6 2872.11 2623.19 2866.59 2620.09 2861.71 2616.39 2857.63 2612.73 2853.59 2608.35 2850.34 2603.38 2847.95 2598.45 2845.59 2592.95 2844.39 2587.01 2844.39H2498.82L2634.66 3054.57V3060.4H2411.77C2409.45 3060.41 2407.26 3060.49 2405.2 3060.59 2403.19 3060.68 2401.28 3060.75 2399.42 3060.75 2397.81 3060.75 2395.91 3060.68 2393.87 3060.4 2393.87 3060.4 2389.25 3059.45 2388.1 3059.02 2379.83 3056.04 2372.83 3051.93 2367.29 3046.86 2361.74 3041.77 2357.5 3035.79 2354.68 3029.07 2351.86 3022.38 2350.44 3015.36 2350.44 3008.23 2350.44 2999.36 2352.15 2991.61 2355.54 2985.18 2358.89 2978.84 2363.27 2973.22 2368.57 2968.47 2373.79 2963.79 2379.9 2959.59 2386.73 2955.97 2393.41 2952.43 2400.37 2948.99 2407.41 2945.75 2414.39 2942.52 2421.23 2939.2 2427.9 2935.77 2434.44 2932.41 2440.27 2928.55 2445.24 2924.31 2450.15 2920.11 2454.22 2915.09 2457.33 2909.4 2460.4 2903.79 2461.95 2897.02 2461.95 2889.27 2461.95 2874.86 2457.9 2863.11 2449.93 2854.36 2442.01 2845.68 2430.38 2841.27 2415.35 2841.27 2409.7 2841.27 2403.55 2842.18 2397.08 2844 2390.68 2845.8 2384.48 2849.09 2378.67 2853.79 2372.83 2858.49 2367.5 2865.04 2362.84 2873.23 2358.18 2881.4 2354.88 2892.15 2353.03 2905.21L2352.78 2907.02H2345.6L2348.94 2850.43 2349.96 2849.86C2358.86 2845 2368.96 2841.09 2379.96 2838.25 2390.98 2835.39 2402.36 2833.95 2413.78 2833.95 2424.43 2833.95 2434.18 2835.47 2442.75 2838.45 2451.35 2841.45 2458.74 2845.77 2464.68 2851.25 2470.63 2856.75 2475.29 2863.31 2478.53 2870.74 2481.78 2878.2 2483.42 2886.52 2483.42 2895.52 2483.42 2904.79 2481.71 2912.95 2478.33 2919.77 2475 2926.52 2470.63 2932.56 2465.35 2937.71 2460.14 2942.81 2454.02 2947.36 2447.16 2951.2 2440.45 2954.96 2433.55 2958.63 2426.51 2962.2 2419.51 2965.73 2412.66 2969.27 2405.98 2972.81 2399.47 2976.25 2393.63 2980.21 2388.62 2984.59 2383.71 2988.9 2379.63 2993.93 2376.51 2999.54 2373.46 3005.02 2371.91 3011.63 2371.91 3019.18 2371.91 3030.55 2375.63 3039.36 2383.29 3046.11 2387.49 3049.8 2391.13 3051.77 2396.73 3053.09H2609.54L2473.4 2842.93V2837.09H2634.53L2637.93 2891.36H2630.73" fill="#1d1d1b"/>
        <path transform="matrix(.1,0,0,-.1,0,566.929)" d="M3103.73 3053.29 3105.63 3053.11C3114.25 3052.29 3121.02 3051.25 3125.73 3050.04 3130.11 3048.88 3133.2 3047.36 3134.91 3045.48 3136.5 3043.73 3137.14 3041.54 3136.89 3038.79 3136.59 3035.63 3135.73 3031.65 3134.3 3027L3083.27 2862.36 3034.02 3033.9C3033.05 3036.98 3032.59 3039.63 3032.7 3041.79 3032.77 3043.66 3033.5 3045.27 3034.91 3046.66 3036.41 3048.15 3039 3049.39 3042.61 3050.34 3046.43 3051.36 3051.95 3052.29 3058.96 3053.11L3060.8 3053.32V3060.4H2981.23V3053.27L2983.16 3053.11C2987.96 3052.7 2992.02 3051.95 2995.21 3050.86 2998.29 3049.8 3000.8 3048.41 3002.66 3046.74 3004.54 3045.06 3006 3043.11 3007.04 3040.98 3008.14 3038.66 3009.11 3036.18 3009.91 3033.63L3017.87 3006.71 2967.68 2862.04 2911.52 3033.9C2910.54 3037 2910.04 3039.68 2910.04 3041.88 2910.04 3043.7 2910.7 3045.2 2912.05 3046.46 2913.57 3047.89 2916.25 3049.15 2919.98 3050.2 2923.96 3051.31 2929.5 3052.29 2936.46 3053.11L2938.3 3053.32V3060.4H2858.73V3053.27L2860.66 3053.11C2865.46 3052.7 2869.5 3051.9 2872.66 3050.72 2875.73 3049.57 2878.25 3048.13 2880.16 3046.43 2882.04 3044.74 2883.52 3042.84 2884.55 3040.79 2885.64 3038.59 2886.61 3036.18 2887.43 3033.55L2953.86 2835.52H2965.98L3021.52 2995.2 3070.05 2835.52H3082.25L3143.96 3033.55C3144.93 3036.52 3146.04 3039.13 3147.25 3041.36 3148.39 3043.4 3149.86 3045.2 3151.64 3046.7 3153.41 3048.2 3155.68 3049.45 3158.36 3050.4 3161.16 3051.39 3164.75 3052.32 3169.05 3053.13L3170.75 3053.45V3060.4H3103.73" fill="#1d1d1b"/>
        <path transform="matrix(.1,0,0,-.1,0,566.929)" d="M3297.18 2937.71C3291.96 2942.82 3285.84 2947.34 3278.99 2951.2 3272.27 2954.96 3265.38 2958.63 3258.34 2962.2 3251.33 2965.73 3244.49 2969.27 3237.8 2972.82 3231.28 2976.27 3225.44 2980.23 3220.45 2984.59 3215.53 2988.91 3211.45 2993.93 3208.34 2999.54 3205.28 3005.02 3203.73 3011.64 3203.73 3019.18 3203.73 3030.55 3207.46 3039.36 3215.11 3046.11 3222.75 3052.82 3233.53 3056.23 3247.18 3056.23 3253.56 3056.23 3259.76 3054.86 3265.62 3052.2 3271.52 3049.5 3277.01 3045.55 3281.95 3040.43 3286.91 3035.29 3291.28 3028.98 3294.93 3021.7 3298.6 3014.39 3301.4 3006.02 3303.23 2996.86L3303.57 2995.18H3310.67L3307.31 3048.64 3306.3 3049.2C3297.38 3054.05 3287.91 3057.7 3278.14 3060.04 3268.37 3062.36 3258.48 3063.54 3248.75 3063.54 3237.87 3063.54 3228.17 3062.02 3219.93 3059.02 3211.64 3056.02 3204.64 3051.93 3199.11 3046.86 3193.57 3041.77 3189.33 3035.8 3186.51 3029.07 3183.69 3022.38 3182.26 3015.36 3182.26 3008.23 3182.26 2999.36 3183.98 2991.61 3187.37 2985.18 3190.71 2978.84 3195.08 2973.23 3200.39 2968.48 3205.6 2963.8 3211.71 2959.61 3218.55 2955.98 3225.29 2952.41 3232.25 2948.96 3239.23 2945.75 3246.22 2942.52 3253.05 2939.21 3259.73 2935.77 3266.28 2932.41 3272.11 2928.55 3277.07 2924.32 3281.99 2920.11 3286.06 2915.09 3289.15 2909.41 3292.22 2903.79 3293.78 2897.02 3293.78 2889.27 3293.78 2874.86 3289.73 2863.11 3281.75 2854.36 3273.83 2845.68 3262.2 2841.27 3247.18 2841.27 3241.52 2841.27 3235.38 2842.18 3228.9 2844 3222.51 2845.8 3216.31 2849.09 3210.49 2853.8 3204.65 2858.5 3199.33 2865.04 3194.66 2873.23 3190 2881.41 3186.7 2892.18 3184.86 2905.21L3184.61 2907.02H3177.42L3180.77 2850.43 3181.78 2849.86C3190.68 2845 3200.78 2841.11 3211.78 2838.25 3222.81 2835.39 3234.19 2833.96 3245.61 2833.96 3256.27 2833.96 3266 2835.48 3274.57 2838.46 3283.17 2841.46 3290.56 2845.77 3296.5 2851.25 3302.45 2856.75 3307.11 2863.3 3310.36 2870.75 3313.6 2878.18 3315.24 2886.52 3315.24 2895.52 3315.24 2904.8 3313.53 2912.96 3310.15 2919.77 3306.82 2926.52 3302.45 2932.57 3297.18 2937.71" fill="#1d1d1b"/>
        <path transform="matrix(.1,0,0,-.1,0,566.929)" d="M3585.29 2921.27 3625.09 3036.43 3665.77 2921.27ZM3737.69 2842.99C3732.83 2843.4 3728.86 2844.06 3725.87 2844.95 3722.99 2845.81 3720.69 2846.9 3719.02 2848.21 3717.35 2849.49 3715.99 2851.02 3714.99 2852.75 3713.92 2854.61 3712.98 2856.84 3712.17 2859.48L3638.16 3060.58H3626.08L3556.49 2859.42C3555.48 2856.43 3554.43 2853.98 3553.36 2852.13 3552.99 2851.49 3552.54 2850.94 3552.09 2850.39 3549.64 2851.84 3547.27 2853.4 3545.06 2855.09 3541.08 2858.14 3537.37 2861.53 3534.02 2865.17 3530.59 2868.9 3527.52 2872.42 3524.8 2875.76L3489.63 2917.39C3487.53 2919.9 3485.06 2922.77 3482.22 2926.03 3479.38 2929.28 3476.44 2932.57 3473.4 2935.92 3470.32 2939.3 3467.31 2942.41 3464.34 2945.26 3462.06 2947.45 3459.94 2949.32 3458.03 2950.84L3525.78 3033.7C3530.03 3038.95 3534.42 3043.12 3538.83 3046.12 3543.12 3049.03 3549.87 3050.91 3558.88 3051.71L3560.79 3051.88V3059.01H3484.36V3051.82L3486.33 3051.71C3499.94 3050.91 3509.03 3048.18 3513.34 3043.6 3515.84 3040.94 3518.51 3036.57 3512.77 3029.43L3465.33 2970.57C3462.92 2967.56 3460.51 2964.95 3458.17 2962.82 3455.97 2960.82 3453.18 2959.17 3449.89 2957.91 3446.52 2956.63 3442.25 2955.67 3437.19 2955.06 3432.14 2954.46 3425.49 2954.14 3417.45 2954.13H3414.9L3415.39 2951.64C3415.57 2950.77 3415.62 2949.9 3415.56 2949.05L3415.39 2946.88 3417.58 2946.81C3424.29 2946.58 3430.31 2945.28 3435.48 2942.95 3440.7 2940.59 3445.99 2936.15 3451.23 2929.73L3490.77 2883.12C3491.62 2882.07 3493.45 2879.82 3496.29 2876.37 3499.12 2872.92 3502.53 2868.85 3506.52 2864.14 3510.5 2859.44 3514.7 2854.57 3519.11 2849.55 3523.24 2844.84 3527.31 2840.7 3531.25 2837.1V2835.69H3532.76 3574.92 3598.26V2842.85L3596.33 2842.99C3588.2 2843.62 3581.58 2844.25 3576.48 2844.86 3571.62 2845.45 3568 2846.33 3565.7 2847.48 3563.76 2848.44 3562.69 2849.55 3562.41 2850.9 3562.18 2851.98 3562.2 2854.1 3563.6 2858.08L3582.91 2913.96H3668.5L3688.12 2858.96C3689.27 2855.92 3689.81 2853.46 3689.72 2851.66 3689.68 2850.8 3689.39 2849.51 3687.43 2848.34 3685.54 2847.2 3682.6 2846.24 3678.68 2845.47 3674.57 2844.65 3668.92 2843.81 3661.89 2842.99L3660.04 2842.77V2835.69H3739.61V2842.83" fill="#1d1d1b"/>
        <path transform="matrix(.1,0,0,-.1,0,566.929)" d="M3403.11 2844.09C3399.4 2844.39 3396.66 2844.99 3394.95 2845.9 3393.45 2846.68 3392.5 2847.73 3392.04 2849.09 3391.48 2850.76 3391.2 2853.27 3391.2 2856.57V3038.15C3391.2 3041.44 3391.48 3043.96 3392.05 3045.63 3392.49 3046.97 3393.45 3048.02 3394.95 3048.81 3396.68 3049.72 3399.43 3050.33 3403.11 3050.61 3407.07 3050.93 3412.4 3051.28 3419.09 3051.71L3421.04 3051.84V3059.02H3339.9V3051.84L3341.88 3051.71C3348.55 3051.28 3353.88 3050.93 3357.86 3050.61 3361.52 3050.33 3364.27 3049.72 3365.99 3048.82 3367.5 3048.02 3368.45 3046.97 3368.9 3045.62 3369.46 3043.96 3369.74 3041.44 3369.74 3038.15V2856.57C3369.74 2853.27 3369.46 2850.76 3368.9 2849.09 3368.45 2847.73 3367.5 2846.68 3365.99 2845.9 3364.27 2844.99 3361.54 2844.39 3357.86 2844.09 3353.88 2843.78 3348.55 2843.42 3341.88 2843L3339.9 2842.88V2835.7H3421.04V2842.88L3419.09 2843C3412.4 2843.42 3407.07 2843.78 3403.11 2844.09" fill="#1d1d1b"/>
        <path transform="matrix(.1,0,0,-.1,0,566.929)" d="M2759.68 2837.75C2748.63 2837.75 2737.86 2840.39 2727.67 2845.59 2717.44 2850.77 2708.25 2858.29 2700.37 2867.91 2692.41 2877.67 2686.04 2889.48 2681.43 2903.01 2676.76 2916.63 2674.4 2932.01 2674.4 2948.74 2674.4 2965.47 2676.76 2980.86 2681.43 2994.52 2686.07 3008.1 2692.44 3019.89 2700.37 3029.57 2708.24 3039.18 2717.42 3046.71 2727.66 3051.94 2737.88 3057.11 2748.66 3059.73 2759.68 3059.73 2770.7 3059.73 2781.48 3057.11 2791.68 3051.95 2801.92 3046.72 2811.11 3039.19 2818.99 3029.57 2826.84 3019.99 2833.22 3008.19 2837.93 2994.53 2842.59 2980.86 2844.95 2965.46 2844.95 2948.74 2844.95 2932.02 2842.59 2916.64 2837.93 2903.01 2833.24 2889.38 2826.87 2877.57 2818.99 2867.92 2811.09 2858.29 2801.91 2850.76 2791.69 2845.58 2781.5 2840.39 2770.73 2837.75 2759.68 2837.75M2861.84 2996.91C2856.3 3011.5 2848.48 3024.29 2838.6 3034.91 2828.72 3045.51 2816.89 3053.88 2803.39 3059.79 2789.94 3065.67 2775.24 3068.64 2759.68 3068.64 2743.85 3068.64 2729.08 3065.66 2715.79 3059.79 2702.43 3053.9 2690.66 3045.53 2680.76 3034.91 2670.91 3024.33 2663.08 3011.55 2657.48 2996.91 2651.97 2982.36 2649.18 2966.16 2649.18 2948.74 2649.18 2931.38 2651.97 2915.17 2657.49 2900.58 2663.06 2886.01 2670.88 2873.23 2680.76 2862.59 2690.66 2851.95 2702.43 2843.58 2715.79 2837.7 2729.18 2831.82 2743.95 2828.84 2759.68 2828.84 2775.14 2828.84 2789.85 2831.82 2803.4 2837.7 2816.89 2843.61 2828.73 2851.98 2838.6 2862.59 2848.51 2873.27 2856.32 2886.05 2861.83 2900.58 2867.38 2915.13 2870.18 2931.33 2870.18 2948.74 2870.18 2966.2 2867.38 2982.4 2861.84 2996.91" fill="#1d1d1b"/>
        <path transform="matrix(.1,0,0,-.1,0,566.929)" d="M2572.84 3266.76 2546.51 3221.79 2519.82 3266.76H2512.32V3202.78H2521.1V3249.12L2544.23 3210.55H2548.44L2571.56 3249.39 2571.65 3202.78H2580.43L2580.34 3266.76" fill="#1d1d1b"/>
        <path transform="matrix(.1,0,0,-.1,0,566.929)" d="M2623.48 3266.76 2594.51 3202.78H2603.91L2610.96 3218.77 2614.14 3226.08 2627.96 3257.44 2641.76 3226.08 2644.96 3218.77 2652 3202.78H2661.6L2632.53 3266.76" fill="#1d1d1b"/>
        <path transform="matrix(.1,0,0,-.1,0,566.929)" d="M2849.58 3266.76 2820.61 3202.78H2830.01L2837.06 3218.77 2840.25 3226.08 2854.06 3257.44 2867.86 3226.08 2871.06 3218.77 2878.1 3202.78H2887.7L2858.63 3266.76" fill="#1d1d1b"/>
        <path transform="matrix(.1,0,0,-.1,0,566.929)" d="M3127.9 3266.76H3118.85L3089.88 3202.78H3099.29L3106.33 3218.77 3109.52 3226.08 3123.33 3257.44 3137.14 3226.08 3140.33 3218.77 3147.37 3202.78H3156.97" fill="#1d1d1b"/>
        <path transform="matrix(.1,0,0,-.1,0,566.929)" d="M2691.08 3256.2C2694.95 3258.31 2699.32 3259.35 2704.2 3259.35 2711.45 3259.35 2717.63 3256.89 2722.75 3251.95L2728.41 3257.62C2725.49 3260.85 2721.94 3263.3 2717.77 3264.98 2713.59 3266.65 2708.94 3267.49 2703.82 3267.49 2697.31 3267.49 2691.44 3266.09 2686.23 3263.29 2681.02 3260.49 2676.94 3256.59 2673.99 3251.59 2671.03 3246.59 2669.56 3240.98 2669.56 3234.77 2669.56 3228.55 2671.03 3222.96 2673.99 3218 2676.94 3213.03 2681.01 3209.13 2686.18 3206.3 2691.37 3203.46 2697.19 3202.04 2703.65 3202.04 2708.22 3202.04 2712.6 3202.74 2716.81 3204.14 2721.01 3205.55 2724.7 3207.55 2727.87 3210.18V3235.13H2719.1V3214.29C2714.83 3211.55 2709.83 3210.18 2704.1 3210.18 2699.29 3210.18 2694.95 3211.25 2691.08 3213.38 2687.21 3215.51 2684.18 3218.45 2681.99 3222.2 2679.79 3225.95 2678.7 3230.13 2678.7 3234.77 2678.7 3239.46 2679.79 3243.68 2681.99 3247.43 2684.18 3251.17 2687.21 3254.1 2691.08 3256.2" fill="#1d1d1b"/>
        <path transform="matrix(.1,0,0,-.1,0,566.929)" d="M2799.08 3222.2C2796.95 3218.57 2793.91 3215.75 2789.99 3213.74 2786.06 3211.73 2781.5 3210.73 2776.32 3210.73H2759.04V3258.81H2776.32C2781.5 3258.81 2786.06 3257.8 2789.99 3255.79 2793.91 3253.78 2796.95 3250.96 2799.08 3247.34 2801.21 3243.71 2802.28 3239.52 2802.28 3234.77 2802.28 3230.01 2801.21 3225.83 2799.08 3222.2M2794.87 3262.74C2789.63 3265.42 2783.63 3266.76 2776.87 3266.76H2749.9V3202.77H2776.87C2783.63 3202.77 2789.63 3204.12 2794.87 3206.8 2800.12 3209.48 2804.19 3213.24 2807.08 3218.08 2809.98 3222.93 2811.43 3228.49 2811.43 3234.77 2811.43 3241.04 2809.98 3246.6 2807.08 3251.45 2804.19 3256.29 2800.12 3260.05 2794.87 3262.74" fill="#1d1d1b"/>
        <path transform="matrix(.1,0,0,-.1,0,566.929)" d="M2909.68 3266.76H2900.55V3202.78H2944.32V3210.73H2909.68" fill="#1d1d1b"/>
        <path transform="matrix(.1,0,0,-.1,0,566.929)" d="M2968.54 3231.39H3000.63V3239.16H2968.54V3258.81H3004.56V3266.76H2959.4V3202.78H3005.84V3210.73H2968.54" fill="#1d1d1b"/>
        <path transform="matrix(.1,0,0,-.1,0,566.929)" d="M3071.12 3219.05 3032.71 3266.76H3025.23V3202.78H3034.37V3250.49L3072.77 3202.78H3080.25V3266.76H3071.12" fill="#1d1d1b"/>
        <path transform="matrix(.1,0,0,-.1,0,566.929)" d="M2794.99 2114.72C2781.36 2118.1 2770.36 2124.67 2762.25 2134.25L2834.07 2236.39 2860.98 2202.23C2861.79 2201.13 2863.59 2198.78 2866.36 2195.16 2869.11 2191.55 2872.43 2187.27 2876.31 2182.34 2878.38 2179.71 2880.52 2177.03 2882.7 2174.31 2864.16 2124.31 2835.34 2104.71 2794.99 2114.72M2754.47 2236.57C2763.77 2274.06 2776.7 2299.74 2792.89 2312.9 2808.89 2325.92 2827.16 2330.01 2847.18 2325.04 2851.02 2324.09 2854.57 2322.89 2857.96 2321.58L2836.2 2292.49C2833.8 2289.29 2831.43 2286.51 2829.11 2284.23 2826.86 2282.03 2824.04 2280.23 2820.71 2278.87 2817.36 2277.49 2813.13 2276.46 2808.11 2275.82 2803.11 2275.17 2796.61 2274.84 2788.77 2274.84H2787.54L2787.74 2273.62C2787.93 2272.61 2787.99 2271.59 2787.91 2270.57L2787.84 2269.51 2788.9 2269.47C2795.57 2269.22 2801.57 2267.82 2806.72 2265.32 2811.95 2262.78 2817.23 2258.02 2822.43 2251.16L2830.04 2241.51 2758.34 2139.55C2745.06 2160.79 2743.77 2193.4 2754.47 2236.57M2877.95 2309.64 2841.29 2257.52C2838.75 2260.48 2836.22 2263.29 2833.79 2265.82 2831.18 2268.51 2828.88 2270.66 2826.82 2272.34L2862.68 2319.57C2868.54 2316.83 2873.7 2313.56 2877.95 2309.64M2891.34 2202.6C2890.84 2200.54 2890.27 2198.64 2889.73 2196.65L2858.34 2236.66C2856.3 2239.29 2853.9 2242.31 2851.13 2245.71 2849.3 2247.96 2847.38 2250.28 2845.45 2252.58L2882.27 2304.94C2900.18 2284.88 2903.22 2250.48 2891.34 2202.6M2940.3 2158.21C2934.93 2158.86 2929.89 2160.37 2925.34 2162.7 2920.74 2165.06 2916.43 2167.9 2912.52 2171.12 2910.02 2173.2 2907.66 2175.47 2905.39 2177.8 2907.54 2184.06 2909.55 2190.59 2911.3 2197.65 2927.54 2263.12 2912.45 2305.73 2866.61 2324.74L2893.56 2360.25C2897.77 2365.84 2902.13 2370.3 2906.52 2373.5 2910.82 2376.66 2917.54 2378.69 2926.5 2379.55L2927.45 2379.64V2384.89H2854.97V2379.61L2855.95 2379.54C2869.46 2378.69 2878.54 2375.71 2882.93 2370.7 2887.2 2365.81 2887.04 2360.43 2882.43 2354.26L2861.74 2326.63C2857.56 2328.15 2853.23 2329.55 2848.59 2330.7 2822.56 2337.16 2799.21 2333.69 2779.2 2320.39 2759.25 2307.13 2744.22 2280.6 2734.52 2241.52 2721.9 2190.69 2727.82 2153.35 2752.11 2130.51L2744.93 2120.63C2737.54 2110.53 2733.29 2103.01 2731.95 2097.65 2730.34 2091.19 2731.18 2082.8 2744.34 2079.54 2748.43 2078.52 2752.29 2078.01 2755.82 2078.03 2759.18 2078.05 2764.49 2078.32 2772.18 2078.85 2784.09 2080.13 2796.21 2080.5 2808.18 2079.94 2820.11 2079.4 2835.43 2076.84 2853.66 2072.31L2855.74 2071.79 2859.4 2086.53 2857.32 2087.05C2838 2091.84 2821.45 2094.31 2808.11 2094.39 2794.77 2094.47 2780.79 2093.47 2766.55 2091.43 2760.8 2090.52 2756.15 2089.98 2752.73 2089.79 2749.4 2089.61 2746.36 2089.86 2743.7 2090.52 2742.02 2090.94 2740.7 2091.71 2739.7 2092.88 2739.38 2093.23 2738.45 2094.31 2739.16 2097.15 2740.2 2101.3 2743.95 2108.1 2750.31 2117.34L2756.71 2126.37C2766.36 2118.56 2778.75 2112.74 2793.59 2109.06 2840.95 2097.31 2875.56 2113.64 2897.04 2157.4 2898.43 2155.92 2899.82 2154.48 2901.2 2153.16L2901.49 2152.87H2941.21V2158.1" fill="#1d1d1b"/>
        <path transform="matrix(.1,0,0,-.1,0,566.929)" d="M2607.14 2674.65C2609.35 2676.44 2610.45 2679.02 2610.45 2682.37 2610.45 2685.73 2609.35 2688.31 2607.14 2690.1 2604.93 2691.89 2601.72 2692.78 2597.53 2692.78H2586.25V2671.96H2597.53C2601.72 2671.96 2604.93 2672.86 2607.14 2674.65M2611.91 2694.24C2615.36 2691.37 2617.08 2687.41 2617.08 2682.37 2617.08 2677.33 2615.36 2673.38 2611.91 2670.51 2608.46 2667.63 2603.74 2666.2 2597.72 2666.2H2586.25V2652.14H2579.62V2698.55H2597.72C2603.74 2698.55 2608.46 2697.11 2611.91 2694.24" fill="#1d1d1b"/>
        <path transform="matrix(.1,0,0,-.1,0,566.929)" d="M2674.83 2652.14 2674.77 2685.95 2657.99 2657.77H2654.94L2638.17 2685.75V2652.14H2631.8V2698.55H2637.24L2656.6 2665.93 2675.69 2698.55H2681.13L2681.2 2652.14" fill="#1d1d1b"/>
        <path transform="matrix(.1,0,0,-.1,0,566.929)" d="M2704.86 2656.91C2701.41 2660.44 2699.7 2665.54 2699.7 2672.16V2698.55H2706.32V2672.42C2706.32 2662.48 2710.68 2657.5 2719.38 2657.5 2723.63 2657.5 2726.88 2658.73 2729.13 2661.18 2731.38 2663.64 2732.52 2667.38 2732.52 2672.42V2698.55H2738.95V2672.16C2738.95 2665.48 2737.21 2660.39 2733.77 2656.88 2730.32 2653.36 2725.5 2651.61 2719.31 2651.61 2713.13 2651.61 2708.31 2653.38 2704.86 2656.91" fill="#1d1d1b"/>
        <path transform="matrix(.1,0,0,-.1,0,566.929)" d="M2789.7 2692.75C2788.52 2691.71 2787.93 2690.34 2787.93 2688.68 2787.93 2687.48 2788.25 2686.32 2788.89 2685.23 2789.54 2684.12 2790.79 2682.62 2792.64 2680.71 2795.7 2682.43 2797.8 2683.91 2798.98 2685.16 2800.14 2686.39 2800.73 2687.75 2800.73 2689.21 2800.73 2690.75 2800.2 2691.98 2799.11 2692.91 2798.02 2693.84 2796.52 2694.3 2794.57 2694.3 2792.48 2694.3 2790.86 2693.79 2789.7 2692.75M2804.32 2661.29 2791.11 2674.41C2787.93 2672.64 2785.71 2671 2784.46 2669.48 2783.2 2667.96 2782.57 2666.23 2782.57 2664.34 2782.57 2662.13 2783.52 2660.34 2785.46 2658.96 2787.38 2657.59 2789.89 2656.91 2792.98 2656.91 2797.57 2656.91 2801.36 2658.37 2804.32 2661.29M2814.25 2651.41 2808.09 2657.57C2803.98 2653.59 2798.82 2651.61 2792.57 2651.61 2789.48 2651.61 2786.71 2652.12 2784.23 2653.14 2781.75 2654.16 2779.82 2655.57 2778.43 2657.41 2777.04 2659.25 2776.34 2661.34 2776.34 2663.68 2776.34 2666.5 2777.21 2669.02 2778.96 2671.21 2780.71 2673.39 2783.59 2675.64 2787.61 2677.93 2785.57 2679.96 2784.14 2681.8 2783.3 2683.43 2782.46 2685.07 2782.04 2686.77 2782.04 2688.54 2782.04 2691.68 2783.18 2694.2 2785.46 2696.09 2787.73 2698 2790.77 2698.95 2794.57 2698.95 2798.11 2698.95 2800.91 2698.09 2802.98 2696.37 2805.07 2694.64 2806.11 2692.27 2806.11 2689.27 2806.11 2686.93 2805.34 2684.82 2803.82 2682.96 2802.3 2681.12 2799.77 2679.16 2796.23 2677.14L2807.7 2665.73C2809.02 2668.25 2809.98 2671.05 2810.55 2674.16L2815.66 2672.5C2814.86 2668.43 2813.5 2664.89 2811.61 2661.89L2817.84 2655.66" fill="#1d1d1b"/>
        <path transform="matrix(.1,0,0,-.1,0,566.929)" d="M2856.99 2653.23C2853.74 2654.31 2851.19 2655.72 2849.33 2657.44L2851.78 2662.61C2853.55 2661.02 2855.82 2659.73 2858.58 2658.73 2861.34 2657.74 2864.18 2657.24 2867.1 2657.24 2870.94 2657.24 2873.82 2657.89 2875.72 2659.2 2877.62 2660.5 2878.57 2662.24 2878.57 2664.4 2878.57 2665.99 2878.05 2667.29 2877.01 2668.28 2875.97 2669.27 2874.69 2670.04 2873.17 2670.57 2871.64 2671.09 2869.49 2671.69 2866.7 2672.36 2863.21 2673.19 2860.39 2674.04 2858.25 2674.88 2856.11 2675.71 2854.27 2677.01 2852.74 2678.76 2851.22 2680.5 2850.46 2682.85 2850.46 2685.81 2850.46 2688.29 2851.11 2690.52 2852.41 2692.51 2853.71 2694.5 2855.7 2696.09 2858.35 2697.28 2861 2698.48 2864.29 2699.08 2868.23 2699.08 2870.96 2699.08 2873.66 2698.72 2876.32 2698.01 2878.97 2697.31 2881.24 2696.29 2883.14 2694.96L2880.96 2689.66C2879.01 2690.9 2876.93 2691.84 2874.73 2692.48 2872.51 2693.12 2870.35 2693.44 2868.23 2693.44 2864.47 2693.44 2861.65 2692.75 2859.77 2691.38 2857.9 2690.01 2856.96 2688.25 2856.96 2686.08 2856.96 2684.49 2857.49 2683.2 2858.55 2682.2 2859.61 2681.21 2860.92 2680.43 2862.49 2679.88 2864.06 2679.33 2866.2 2678.75 2868.89 2678.13 2872.38 2677.28 2875.19 2676.44 2877.31 2675.61 2879.43 2674.76 2881.25 2673.48 2882.78 2671.76 2884.3 2670.04 2885.07 2667.72 2885.07 2664.8 2885.07 2662.36 2884.4 2660.15 2883.08 2658.13 2881.75 2656.12 2879.74 2654.53 2877.05 2653.36 2874.35 2652.19 2871.03 2651.61 2867.1 2651.61 2863.61 2651.61 2860.24 2652.15 2856.99 2653.23" fill="#1d1d1b"/>
        <path transform="matrix(.1,0,0,-.1,0,566.929)" d="M2907.91 2654.69C2904.17 2656.75 2901.25 2659.57 2899.12 2663.18 2897 2666.78 2895.94 2670.83 2895.94 2675.34 2895.94 2679.85 2897 2683.91 2899.12 2687.51 2901.25 2691.11 2904.18 2693.94 2907.94 2696 2911.7 2698.05 2915.9 2699.08 2920.54 2699.08 2924.16 2699.08 2927.47 2698.47 2930.48 2697.26 2933.49 2696.04 2936.05 2694.24 2938.17 2691.85L2933.86 2687.67C2930.37 2691.34 2926.02 2693.18 2920.81 2693.18 2917.36 2693.18 2914.24 2692.41 2911.45 2690.86 2908.67 2689.31 2906.49 2687.18 2904.93 2684.46 2903.36 2681.74 2902.57 2678.7 2902.57 2675.34 2902.57 2671.98 2903.36 2668.95 2904.93 2666.23 2906.49 2663.51 2908.67 2661.38 2911.45 2659.83 2914.24 2658.28 2917.36 2657.51 2920.81 2657.51 2925.97 2657.51 2930.33 2659.36 2933.86 2663.08L2938.17 2658.9C2936.05 2656.51 2933.48 2654.7 2930.45 2653.47 2927.42 2652.22 2924.1 2651.61 2920.47 2651.61 2915.83 2651.61 2911.64 2652.63 2907.91 2654.69" fill="#1d1d1b"/>
        <path transform="matrix(.1,0,0,-.1,0,566.929)" d="M2978.75 2669.04 2968.74 2691.78 2958.73 2669.04ZM2981.07 2663.74H2956.41L2951.3 2652.14H2944.47L2965.49 2698.55H2972.05L2993.14 2652.14H2986.18" fill="#1d1d1b"/>
        <path transform="matrix(.1,0,0,-.1,0,566.929)" d="M3032.52 2674.62C3034.73 2676.43 3035.83 2679.02 3035.83 2682.37 3035.83 2685.73 3034.73 2688.3 3032.52 2690.1 3030.31 2691.89 3027.1 2692.79 3022.91 2692.79H3011.63V2671.89H3022.91C3027.1 2671.89 3030.31 2672.8 3032.52 2674.62M3036.03 2652.14 3026.02 2666.39C3024.78 2666.3 3023.81 2666.26 3023.1 2666.26H3011.63V2652.14H3005V2698.55H3023.1C3029.12 2698.55 3033.85 2697.11 3037.3 2694.24 3040.74 2691.37 3042.46 2687.41 3042.46 2682.37 3042.46 2678.8 3041.58 2675.75 3039.81 2673.23 3038.04 2670.71 3035.53 2668.87 3032.26 2667.71L3043.26 2652.14" fill="#1d1d1b"/>
        <path transform="matrix(.1,0,0,-.1,0,566.929)" d="M3061.59 2653.23C3058.34 2654.31 3055.79 2655.72 3053.93 2657.44L3056.38 2662.61C3058.15 2661.02 3060.42 2659.73 3063.18 2658.73 3065.94 2657.74 3068.78 2657.24 3071.7 2657.24 3075.54 2657.24 3078.42 2657.89 3080.32 2659.2 3082.22 2660.5 3083.17 2662.24 3083.17 2664.4 3083.17 2665.99 3082.65 2667.29 3081.61 2668.28 3080.57 2669.27 3079.29 2670.04 3077.77 2670.57 3076.24 2671.09 3074.09 2671.69 3071.3 2672.36 3067.81 2673.19 3064.99 2674.04 3062.85 2674.88 3060.71 2675.71 3058.87 2677.01 3057.34 2678.76 3055.82 2680.5 3055.06 2682.85 3055.06 2685.81 3055.06 2688.29 3055.71 2690.52 3057.01 2692.51 3058.31 2694.5 3060.3 2696.09 3062.95 2697.28 3065.6 2698.48 3068.89 2699.08 3072.83 2699.08 3075.56 2699.08 3078.26 2698.72 3080.92 2698.01 3083.57 2697.31 3085.84 2696.29 3087.74 2694.96L3085.56 2689.66C3083.61 2690.9 3081.53 2691.84 3079.33 2692.48 3077.11 2693.12 3074.95 2693.44 3072.83 2693.44 3069.07 2693.44 3066.25 2692.75 3064.37 2691.38 3062.5 2690.01 3061.56 2688.25 3061.56 2686.08 3061.56 2684.49 3062.09 2683.2 3063.15 2682.2 3064.21 2681.21 3065.52 2680.43 3067.09 2679.88 3068.66 2679.33 3070.8 2678.75 3073.49 2678.13 3076.98 2677.28 3079.79 2676.44 3081.91 2675.61 3084.03 2674.76 3085.85 2673.48 3087.38 2671.76 3088.9 2670.04 3089.67 2667.72 3089.67 2664.8 3089.67 2662.36 3089 2660.15 3087.68 2658.13 3086.35 2656.12 3084.34 2654.53 3081.65 2653.36 3078.95 2652.19 3075.63 2651.61 3071.7 2651.61 3068.21 2651.61 3064.84 2652.15 3061.59 2653.23" fill="#1d1d1b"/>
    </g>
</svg>